<svg xmlns="http://www.w3.org/2000/svg"><symbol id="r" viewBox="560 100 1815 2320"><path fill="currentColor" fill-rule="evenodd" d="M907 2396C843 2392 786 2366 740 2320C717 2297 703 2278 690 2250C661 2191 657 2131 679 2070C690 2038 699 2020 734 1965C745 1947 747 1944 756 1929C766 1911 778 1886 783 1873C802 1825 810 1792 813 1742C815 1714 812 1677 805 1639C804 1633 802 1625 802 1623C802 1620 800 1612 798 1605C796 1598 794 1590 794 1588C793 1587 793 1585 792 1584C791 1581 793 1582 795 1585C796 1588 803 1608 804 1612C804 1614 806 1619 807 1622C810 1631 815 1651 816 1657C819 1673 821 1684 823 1704C824 1715 824 1751 823 1762C821 1777 819 1791 816 1806C815 1808 815 1812 814 1814C813 1819 809 1832 808 1838C807 1841 805 1846 804 1850C803 1854 801 1858 801 1858C801 1859 800 1862 799 1864C798 1866 797 1869 797 1869C796 1870 796 1871 796 1872C796 1872 795 1876 793 1880C791 1883 790 1886 790 1886C790 1887 780 1908 777 1914C767 1933 750 1962 733 1990C719 2010 717 2013 709 2029C681 2084 671 2133 680 2182C695 2275 770 2355 861 2378C887 2384 892 2384 922 2384C948 2384 950 2384 963 2382C1055 2364 1132 2288 1150 2196C1154 2179 1154 2172 1154 2151C1154 2109 1147 2077 1122 2010C1104 1961 1097 1942 1089 1918C1068 1854 1053 1788 1042 1717C1037 1687 1028 1614 1028 1607C1028 1605 1026 1604 1016 1600C1012 1599 1008 1597 1005 1596C1003 1595 1001 1594 1000 1594C1000 1594 996 1593 992 1591C987 1589 981 1587 978 1586C975 1585 972 1583 971 1583C970 1582 969 1582 968 1582C968 1583 969 1589 970 1596C972 1603 976 1623 979 1640C1000 1740 1017 1811 1038 1877C1047 1906 1064 1953 1069 1966C1102 2048 1114 2092 1114 2138C1114 2188 1100 2229 1070 2267C1048 2294 1013 2319 980 2329C946 2340 907 2341 875 2332C809 2314 762 2264 745 2194C741 2178 740 2168 740 2146C740 2117 742 2105 751 2075C758 2054 771 2026 787 1996C800 1973 815 1941 822 1924C824 1917 827 1912 827 1910C830 1904 836 1884 838 1877C838 1875 840 1869 841 1864C843 1859 844 1852 845 1848C846 1845 847 1841 847 1840C848 1835 851 1813 853 1794C855 1778 855 1719 853 1706C852 1701 851 1693 851 1688C850 1684 849 1678 849 1676C848 1673 848 1668 847 1664C846 1656 844 1649 841 1635C841 1632 840 1628 839 1624C837 1615 836 1608 832 1591C829 1581 826 1568 824 1556C823 1553 821 1547 820 1542C819 1537 818 1531 817 1528C816 1522 816 1522 801 1516C764 1500 714 1474 688 1457C602 1402 565 1330 585 1261C594 1230 614 1200 643 1173C681 1138 729 1108 802 1077C808 1074 813 1072 814 1072C814 1073 814 1073 790 1089C720 1135 673 1184 655 1229C632 1289 662 1343 745 1388C759 1396 793 1413 795 1413C797 1413 797 1412 796 1410C796 1406 795 1390 793 1371C790 1335 793 1266 800 1223C800 1221 801 1217 801 1213C804 1192 809 1165 813 1150C814 1145 816 1140 816 1138C818 1128 824 1105 826 1099C827 1096 829 1090 831 1084C836 1069 847 1036 849 1030C849 1029 851 1025 853 1020C855 1015 857 1011 857 1010C857 1008 859 1005 859 1003C860 1001 862 997 863 995C866 987 867 985 869 980C870 977 873 971 875 967C876 963 878 960 878 960C878 957 907 899 917 883C918 880 920 877 920 876C920 876 923 872 926 866C929 860 932 856 932 856C932 855 948 829 950 826C951 824 952 823 952 823C952 821 974 788 993 761C1002 747 1032 707 1044 692C1047 688 1059 673 1069 661C1078 649 1089 636 1091 633C1093 630 1102 620 1109 611C1135 579 1144 568 1166 541C1188 514 1199 498 1206 489C1208 486 1213 479 1218 473C1235 449 1257 413 1268 394C1270 390 1273 385 1274 382C1279 374 1294 343 1294 341C1294 341 1295 339 1296 336C1301 325 1308 305 1312 293C1313 289 1315 284 1315 283C1317 277 1321 257 1323 247C1330 205 1329 163 1320 122C1320 118 1321 118 1323 122C1326 129 1331 144 1333 153C1339 180 1340 184 1343 209C1345 223 1345 276 1343 292C1339 320 1339 322 1335 341C1333 349 1326 379 1325 382C1325 383 1323 388 1322 392C1320 399 1315 414 1312 423C1312 425 1310 431 1308 436C1300 455 1293 474 1292 476C1291 478 1290 481 1289 483C1288 485 1287 489 1285 492C1278 507 1278 508 1270 526C1260 548 1255 557 1248 570C1237 593 1219 629 1214 636C1212 640 1209 648 1206 653C1203 658 1200 665 1198 668C1196 672 1191 681 1187 688C1183 695 1178 706 1175 710C1170 722 1138 785 1132 798C1122 819 1109 847 1104 860C1102 864 1098 874 1095 880C1092 887 1087 900 1084 909C1081 918 1077 927 1077 928C1075 931 1076 931 1084 929C1099 925 1132 916 1146 913C1148 912 1154 911 1158 910C1169 908 1175 906 1183 905C1187 904 1191 903 1194 903C1197 902 1223 898 1242 895C1254 893 1279 890 1294 889C1328 886 1343 886 1388 886C1431 886 1445 886 1476 889C1499 891 1523 894 1551 899C1564 901 1598 908 1607 911C1612 912 1618 914 1620 914C1629 916 1641 920 1660 926C1805 974 1896 1062 1924 1179C1936 1234 1934 1287 1917 1342C1886 1442 1808 1523 1704 1563C1679 1572 1680 1572 1660 1578C1656 1579 1651 1581 1648 1582C1643 1583 1622 1588 1608 1591C1594 1594 1593 1594 1570 1598C1560 1600 1545 1602 1533 1603C1527 1604 1520 1604 1518 1605C1491 1609 1399 1609 1378 1605C1377 1604 1373 1604 1368 1603C1363 1602 1359 1601 1359 1601C1359 1601 1364 1599 1369 1598C1389 1594 1433 1580 1436 1577C1437 1576 1438 1576 1439 1576C1439 1576 1443 1575 1446 1573C1450 1571 1453 1570 1454 1570C1455 1570 1487 1553 1496 1548C1529 1528 1558 1505 1579 1481C1610 1447 1629 1414 1644 1371C1652 1345 1658 1311 1658 1283C1658 1270 1655 1242 1653 1230C1648 1211 1642 1190 1639 1184C1638 1183 1638 1182 1638 1181C1638 1179 1626 1153 1619 1141C1588 1088 1539 1044 1472 1010C1379 964 1256 944 1143 958C1139 959 1132 959 1127 960C1103 963 1064 971 1062 973C1060 975 1050 1004 1041 1039C1025 1100 1014 1168 1008 1235C1006 1261 1006 1340 1008 1362C1013 1420 1015 1438 1024 1489C1024 1492 1025 1492 1028 1493C1048 1498 1116 1518 1138 1525C1181 1538 1234 1556 1258 1567C1260 1568 1266 1571 1272 1574C1284 1579 1320 1596 1331 1603C1348 1612 1363 1621 1375 1629C1433 1666 1486 1714 1532 1772C1539 1781 1541 1784 1555 1802C1568 1820 1589 1851 1603 1874C1611 1887 1616 1895 1618 1898C1619 1900 1622 1905 1625 1910C1631 1920 1644 1942 1644 1943C1644 1943 1645 1944 1646 1946C1648 1948 1661 1971 1669 1985C1671 1989 1688 2019 1692 2026C1711 2058 1720 2073 1738 2100C1793 2183 1851 2240 1921 2280C1961 2303 2008 2321 2052 2331C2123 2347 2211 2350 2284 2340C2301 2337 2323 2333 2342 2328C2358 2324 2359 2326 2344 2331C2263 2358 2133 2369 1997 2360C1985 2360 1970 2359 1965 2358C1959 2357 1951 2357 1946 2356C1815 2342 1704 2299 1614 2228C1607 2222 1598 2215 1594 2212C1586 2204 1550 2171 1549 2169C1549 2169 1543 2163 1537 2157C1512 2131 1474 2084 1438 2033C1416 2002 1399 1978 1351 1906C1305 1837 1293 1819 1272 1791C1262 1779 1244 1756 1239 1750C1200 1704 1176 1683 1136 1654C1119 1643 1115 1640 1105 1636C1101 1634 1096 1632 1094 1631C1091 1630 1085 1627 1079 1625C1073 1623 1067 1620 1065 1619C1061 1617 1060 1617 1049 1613C1045 1611 1041 1610 1040 1610C1040 1611 1047 1674 1052 1707C1066 1800 1088 1887 1117 1962C1119 1969 1122 1976 1123 1979C1124 1982 1127 1990 1129 1996C1151 2051 1160 2082 1165 2123C1167 2141 1166 2171 1162 2195C1160 2206 1154 2228 1151 2236C1151 2237 1150 2239 1149 2241C1140 2261 1136 2269 1126 2284C1087 2344 1021 2386 955 2394C944 2396 917 2397 907 2396ZM2103 2352C2102 2351 2095 2350 2080 2348C2050 2344 1998 2333 1964 2322C1891 2299 1803 2248 1743 2194C1741 2193 1735 2187 1729 2182C1713 2168 1678 2132 1659 2112C1641 2092 1609 2055 1588 2029C1552 1986 1536 1967 1521 1948C1475 1895 1415 1834 1375 1799C1355 1782 1347 1776 1331 1764C1322 1757 1313 1750 1311 1749C1295 1736 1239 1701 1217 1690C1213 1688 1209 1685 1208 1685C1208 1685 1202 1681 1196 1678C1189 1675 1181 1670 1178 1669C1172 1665 1170 1666 1175 1670C1212 1699 1253 1746 1298 1808C1313 1828 1318 1836 1367 1910C1465 2056 1505 2108 1561 2164C1595 2199 1622 2222 1658 2246C1764 2316 1882 2347 2052 2352C2095 2353 2103 2353 2103 2352ZM955 2324C1025 2311 1086 2250 1099 2178C1109 2127 1101 2082 1072 2006C1067 1995 1062 1981 1060 1976C1059 1972 1056 1963 1054 1958C1040 1924 1021 1862 1011 1823C1005 1803 1003 1797 1003 1802C1003 1804 1003 1808 1004 1812C1005 1815 1006 1828 1008 1840C1015 1899 1023 1936 1042 2005C1062 2071 1065 2090 1065 2123C1065 2163 1054 2195 1031 2224C994 2270 931 2287 875 2268C847 2258 819 2233 804 2205C797 2194 792 2177 789 2164C784 2138 785 2127 792 2095C793 2087 803 2058 806 2050C807 2048 809 2044 810 2042C810 2041 812 2037 813 2034C814 2032 816 2027 817 2025C818 2023 820 2018 822 2015C823 2012 824 2010 824 2009C824 2009 825 2007 826 2004C827 2002 829 1999 829 1998C829 1996 831 1993 832 1991C835 1983 846 1951 849 1938C850 1935 851 1932 851 1930C856 1914 861 1883 863 1856C864 1840 864 1808 863 1810C862 1811 862 1813 862 1815C862 1817 862 1821 861 1824C861 1826 860 1832 859 1836C858 1842 856 1851 854 1862C853 1865 851 1875 848 1884C847 1890 838 1916 837 1917C836 1918 836 1919 836 1920C836 1921 835 1924 833 1927C831 1931 830 1934 830 1934C830 1935 829 1938 827 1941C826 1945 823 1950 822 1952C820 1957 804 1989 799 1999C789 2017 786 2022 783 2029C776 2042 772 2052 768 2062C767 2065 765 2069 765 2070C764 2073 761 2082 760 2086C757 2096 756 2100 755 2106C754 2109 753 2114 753 2116C751 2124 751 2170 753 2177C753 2180 755 2185 755 2188C756 2194 761 2211 763 2215C764 2216 764 2218 765 2219C787 2276 838 2316 899 2325C913 2328 940 2327 955 2324ZM1915 2290C1915 2289 1909 2286 1902 2282C1860 2256 1822 2223 1782 2178C1764 2157 1732 2113 1714 2084C1691 2046 1688 2041 1682 2030C1681 2028 1679 2026 1679 2026C1679 2025 1677 2023 1676 2021C1675 2019 1673 2015 1672 2013C1671 2011 1668 2007 1667 2004C1665 2001 1663 1997 1662 1996C1661 1994 1660 1993 1660 1992C1660 1992 1659 1991 1658 1989C1657 1988 1655 1984 1653 1981C1646 1968 1637 1952 1632 1945C1631 1943 1630 1941 1630 1941C1630 1940 1628 1936 1625 1932C1622 1928 1620 1924 1620 1924C1620 1923 1606 1900 1598 1888C1595 1882 1589 1874 1586 1868C1531 1781 1472 1713 1406 1664C1384 1647 1355 1628 1328 1614C1320 1609 1282 1590 1274 1587C1271 1585 1266 1583 1263 1582C1257 1579 1238 1571 1228 1567C1177 1548 1149 1539 1015 1501C910 1471 856 1453 790 1423C775 1417 753 1406 742 1400C696 1373 669 1350 651 1320C637 1298 633 1267 639 1242C649 1205 672 1171 712 1137C721 1129 717 1131 700 1142C638 1184 601 1231 593 1279C592 1291 592 1315 594 1324C606 1373 641 1415 700 1452C742 1478 789 1500 868 1531C895 1542 957 1566 963 1568C964 1568 970 1571 976 1573C983 1575 991 1578 995 1580C999 1582 1010 1586 1018 1589C1027 1592 1038 1596 1042 1598C1052 1602 1089 1617 1094 1619C1097 1620 1102 1622 1106 1624C1111 1626 1116 1628 1119 1629C1121 1630 1125 1632 1128 1633C1131 1634 1136 1637 1140 1638C1144 1640 1150 1643 1154 1644C1162 1648 1211 1673 1216 1676C1218 1677 1222 1679 1224 1680C1225 1681 1229 1683 1230 1684C1232 1685 1236 1687 1238 1688C1239 1689 1243 1691 1245 1692C1247 1693 1250 1696 1253 1697C1255 1699 1257 1700 1257 1700C1258 1700 1287 1719 1302 1729C1337 1754 1358 1769 1391 1799C1432 1834 1475 1879 1528 1938C1535 1947 1558 1975 1575 1996C1583 2004 1589 2012 1589 2012C1589 2012 1597 2022 1607 2033C1635 2067 1668 2104 1686 2123C1756 2197 1812 2240 1889 2279C1901 2285 1912 2290 1913 2290C1914 2290 1915 2290 1915 2290ZM934 2264C978 2260 1017 2234 1037 2194C1053 2163 1058 2131 1052 2094C1049 2070 1047 2061 1034 2015C1016 1951 1014 1945 1007 1909C1000 1877 997 1854 988 1764C985 1738 982 1711 979 1698C978 1691 977 1684 976 1682C976 1679 974 1672 973 1668C972 1663 969 1650 967 1640C966 1630 963 1618 962 1614C962 1611 960 1601 958 1593C955 1577 954 1576 953 1576C952 1576 947 1574 941 1572C935 1570 927 1567 923 1565C893 1554 845 1534 836 1531C829 1528 828 1528 829 1532C830 1533 831 1538 832 1543C833 1548 835 1556 836 1561C837 1566 839 1571 839 1574C840 1576 841 1581 842 1586C850 1622 851 1629 853 1636C854 1640 855 1644 855 1646C857 1657 862 1683 864 1697C865 1701 865 1706 866 1710C869 1732 872 1760 874 1786C875 1807 875 1852 873 1867C871 1883 870 1893 869 1898C869 1900 868 1905 867 1909C866 1913 865 1918 865 1920C864 1922 863 1926 863 1929C860 1942 859 1944 852 1968C847 1981 839 2002 835 2012C834 2014 832 2019 830 2022C829 2025 828 2027 828 2028C828 2028 826 2032 824 2036C822 2041 820 2045 820 2045C820 2046 819 2048 818 2050C817 2053 815 2057 814 2060C813 2064 811 2067 811 2068C810 2070 807 2081 805 2086C805 2088 803 2094 802 2099C796 2131 796 2154 805 2180C820 2226 861 2259 908 2264C920 2265 921 2265 934 2264ZM1456 1597C1473 1596 1495 1592 1510 1588C1529 1583 1552 1576 1561 1572C1564 1570 1571 1568 1576 1565C1631 1542 1688 1500 1726 1453C1770 1398 1794 1336 1794 1275C1794 1260 1794 1255 1791 1238C1781 1178 1749 1122 1696 1076C1625 1014 1522 971 1400 955C1372 951 1309 946 1302 947C1299 948 1306 949 1318 951C1370 958 1408 970 1460 992C1510 1014 1561 1050 1594 1087C1614 1111 1634 1142 1644 1166C1645 1168 1647 1172 1648 1175C1649 1177 1650 1179 1650 1180C1650 1181 1650 1182 1651 1183C1652 1185 1655 1193 1658 1204C1662 1220 1663 1223 1667 1246C1672 1274 1670 1315 1662 1348C1658 1365 1651 1387 1645 1401C1644 1403 1642 1408 1640 1411C1638 1417 1635 1422 1632 1427C1631 1429 1629 1433 1628 1435C1618 1452 1597 1480 1581 1496C1550 1528 1501 1562 1460 1579C1458 1579 1456 1580 1454 1581C1446 1585 1421 1593 1413 1595C1410 1596 1407 1597 1406 1598C1404 1599 1432 1599 1456 1597ZM1557 1589C1565 1588 1581 1585 1596 1582C1627 1576 1674 1563 1700 1552C1786 1517 1850 1460 1887 1384C1920 1317 1928 1247 1911 1178C1884 1068 1801 988 1663 940C1656 937 1648 935 1629 929C1619 926 1598 920 1589 919C1585 918 1577 916 1572 915C1510 902 1423 894 1358 897C1319 898 1297 900 1270 903C1266 903 1258 904 1253 905C1238 907 1208 911 1191 915C1187 915 1181 916 1178 917C1175 918 1171 918 1168 919C1166 919 1161 921 1158 921C1154 922 1148 924 1144 925C1141 925 1136 926 1134 927C1107 933 1073 942 1071 944C1070 945 1066 955 1066 958C1065 960 1068 960 1084 956C1092 954 1101 952 1104 952C1135 947 1153 944 1166 943C1172 942 1180 942 1184 941C1188 941 1198 940 1205 939C1212 938 1224 938 1231 937C1248 936 1312 936 1331 937C1358 939 1373 940 1386 942C1399 943 1404 944 1418 946C1421 946 1427 947 1430 948C1440 949 1444 950 1457 953C1463 954 1469 955 1470 956C1512 964 1571 985 1612 1006C1752 1077 1823 1194 1802 1318C1788 1398 1739 1472 1659 1531C1630 1552 1587 1575 1555 1586C1543 1590 1544 1591 1557 1589ZM1011 1485C1011 1484 1010 1476 1009 1468C992 1361 990 1269 1004 1169C1026 1010 1075 873 1179 680C1181 676 1186 666 1189 660C1193 653 1197 646 1198 644C1199 642 1203 635 1206 629C1213 615 1216 610 1217 608C1218 608 1218 607 1218 606C1218 605 1211 614 1204 625C1197 636 1190 647 1188 649C1178 663 1126 742 1117 756C1084 809 1049 873 1029 918C1010 961 1006 972 995 1004C970 1074 955 1138 945 1213C940 1251 936 1304 936 1336C936 1352 938 1397 940 1411C940 1416 941 1424 942 1429C943 1442 947 1466 948 1468C948 1469 954 1472 964 1475C1015 1489 1012 1489 1011 1485ZM934 1459C934 1456 933 1451 933 1448C933 1446 932 1439 931 1433C930 1427 929 1419 929 1414C926 1390 926 1374 926 1336C926 1296 926 1284 929 1252C932 1221 937 1184 941 1162C947 1131 949 1120 956 1092C983 985 1027 881 1093 772C1106 751 1123 725 1156 676C1190 625 1211 593 1218 581C1222 576 1227 568 1229 564C1232 560 1235 555 1236 554C1237 552 1241 545 1245 539C1249 533 1253 525 1255 522C1257 518 1260 513 1262 510C1265 503 1281 471 1283 466C1284 465 1285 463 1285 462C1286 461 1286 460 1286 459C1286 458 1287 456 1288 454C1289 451 1290 449 1290 449C1290 448 1291 446 1292 443C1293 441 1295 437 1295 436C1296 435 1296 433 1297 432C1298 430 1307 402 1311 388C1317 371 1325 333 1328 314C1331 291 1335 257 1334 256C1333 255 1332 256 1331 263C1327 285 1315 322 1305 345C1303 348 1302 352 1301 354C1299 359 1279 399 1276 404C1274 406 1271 412 1268 416C1251 445 1229 478 1209 504C1204 511 1197 520 1193 525C1190 530 1184 537 1180 542C1176 547 1169 556 1163 562C1158 569 1148 581 1142 589C1135 597 1124 611 1116 620C1047 706 1018 744 983 796C969 817 953 842 940 864C934 875 931 880 920 900C916 908 900 940 894 952C885 971 882 979 879 986C878 989 876 994 875 996C873 999 871 1004 870 1008C869 1011 867 1014 867 1016C867 1017 865 1021 863 1026C861 1031 859 1035 859 1036C856 1043 853 1052 848 1068C845 1079 841 1088 841 1090C841 1091 840 1093 840 1094C839 1097 837 1102 836 1106C835 1111 831 1125 830 1129C829 1131 829 1135 828 1137C828 1139 827 1143 826 1146C825 1149 824 1154 823 1158C822 1163 821 1168 819 1176C819 1179 818 1183 817 1187C816 1191 815 1195 815 1198C815 1200 814 1205 813 1209C812 1213 812 1219 811 1222C808 1240 807 1250 805 1274C803 1302 803 1362 806 1391C806 1396 807 1404 808 1409C808 1415 809 1418 810 1419C812 1421 828 1428 848 1436C871 1444 931 1465 934 1465C935 1465 935 1464 934 1459Z"/></symbol><symbol id="r-bold" viewBox="560 100 1815 2320"><path fill="currentColor" fill-rule="evenodd" d="M902 2401C838 2397 781 2371 735 2325C694 2284 670 2237 662 2182C660 2169 660 2165 660 2144C661 2104 667 2079 684 2040C692 2020 700 2006 729 1960C740 1942 742 1939 751 1924C761 1906 773 1881 778 1868C797 1821 804 1788 808 1739C810 1716 807 1680 800 1644C799 1638 797 1630 797 1628C796 1624 791 1602 788 1591C787 1589 787 1585 787 1582C787 1577 787 1577 793 1577C798 1577 799 1577 800 1580C801 1583 808 1603 809 1608C809 1609 811 1614 812 1618C815 1626 820 1646 821 1652C824 1668 826 1679 828 1699C829 1710 829 1756 828 1767C826 1782 824 1796 821 1811C820 1813 820 1817 819 1819C818 1824 814 1837 813 1843C812 1846 810 1851 809 1855C808 1859 806 1863 806 1864C806 1864 805 1867 804 1869C803 1871 802 1874 802 1874C801 1875 801 1876 801 1877C801 1877 800 1881 798 1884C796 1888 795 1891 795 1891C795 1892 785 1913 782 1920C772 1938 755 1967 738 1994C724 2015 722 2018 714 2034C699 2063 690 2088 684 2118C682 2131 682 2164 684 2177C689 2202 695 2220 706 2242C738 2307 798 2355 866 2373C891 2379 897 2379 922 2379C953 2379 970 2376 998 2365C1087 2330 1149 2241 1149 2151C1149 2115 1141 2079 1117 2014C1099 1966 1092 1947 1084 1923C1063 1859 1048 1793 1037 1722C1032 1692 1023 1619 1023 1612C1023 1610 1021 1609 1010 1605C1007 1604 1003 1602 1002 1601C1000 1601 996 1599 993 1598C990 1597 985 1595 982 1594C979 1593 976 1593 976 1593C976 1594 977 1602 979 1611C981 1620 985 1636 987 1648C1003 1730 1023 1809 1043 1872C1052 1901 1069 1948 1074 1961C1081 1980 1096 2018 1101 2034C1115 2076 1119 2101 1119 2138C1119 2162 1119 2170 1115 2186C1103 2246 1065 2296 1012 2323C994 2332 979 2337 960 2341C942 2344 907 2344 890 2342C815 2329 759 2276 740 2199C735 2182 735 2173 735 2146C735 2112 736 2101 746 2070C753 2049 766 2021 782 1992C795 1968 810 1936 817 1918C819 1912 822 1907 822 1906C825 1899 831 1879 833 1872C833 1870 835 1864 836 1859C838 1854 839 1847 840 1844C841 1840 842 1836 842 1834C843 1830 846 1808 848 1790C850 1774 850 1724 848 1711C847 1706 846 1698 846 1694C845 1689 844 1683 844 1680C843 1678 843 1673 842 1669C841 1661 839 1654 836 1640C836 1637 835 1633 834 1630C832 1620 831 1613 827 1596C824 1586 821 1573 819 1562C818 1558 816 1552 815 1547C814 1542 813 1536 812 1533C811 1527 811 1527 796 1521C759 1505 709 1479 683 1462C621 1422 584 1374 576 1322C571 1283 579 1244 601 1211C637 1157 696 1115 797 1072C806 1068 809 1067 813 1067C819 1067 819 1067 819 1073C819 1078 819 1078 815 1081C813 1082 804 1088 795 1094C707 1152 656 1213 653 1264C652 1290 667 1320 695 1345C716 1364 735 1376 774 1396C791 1405 791 1405 790 1403C789 1398 787 1359 787 1328C787 1285 789 1252 795 1218C795 1216 796 1212 796 1208C799 1187 804 1160 808 1145C809 1140 811 1135 811 1132C813 1123 819 1100 821 1094C822 1091 824 1085 826 1079C831 1064 842 1031 844 1026C844 1024 846 1020 848 1015C850 1010 852 1006 852 1004C852 1003 854 1000 854 998C855 996 857 992 858 990C858 988 860 986 860 984C861 982 863 978 864 975C865 972 868 966 870 962C871 958 873 955 873 955C873 952 902 894 912 878C913 875 915 872 915 871C915 871 918 867 921 861C924 855 927 851 927 851C927 850 943 824 945 821C946 819 947 818 947 818C947 816 969 783 988 756C997 742 1027 702 1039 688C1042 683 1054 668 1064 656C1073 644 1084 631 1086 628C1088 625 1097 615 1104 606C1130 574 1139 563 1161 536C1183 509 1194 493 1201 484C1203 481 1208 474 1213 468C1230 444 1252 408 1263 389C1265 385 1268 380 1269 377C1274 369 1289 338 1289 336C1289 336 1290 334 1291 331C1296 320 1303 300 1307 288C1308 284 1310 279 1310 278C1311 275 1314 261 1316 254C1324 214 1324 174 1317 136C1316 133 1316 127 1315 122L1315 114L1321 114C1326 114 1327 114 1328 117C1331 124 1336 139 1338 148C1344 175 1345 178 1348 204C1350 219 1350 280 1348 296C1344 325 1344 326 1340 346C1338 354 1331 384 1330 387C1330 388 1328 393 1327 397C1325 404 1320 419 1317 428C1317 430 1315 436 1313 441C1305 460 1298 479 1297 482C1296 483 1295 486 1294 488C1293 490 1292 494 1290 496C1283 512 1283 513 1275 532C1265 553 1260 562 1253 576C1242 598 1224 634 1219 642C1217 645 1214 653 1211 658C1208 663 1205 670 1203 673C1201 677 1196 686 1192 693C1188 700 1183 711 1180 716C1175 727 1143 790 1137 803C1127 824 1114 852 1109 864C1107 869 1103 879 1100 886C1097 893 1093 903 1091 908C1089 914 1087 919 1087 920C1086 922 1088 921 1097 919C1113 915 1134 909 1140 908C1143 907 1149 906 1154 905C1164 903 1170 901 1178 900C1182 899 1186 898 1188 898C1191 897 1201 896 1212 894C1243 889 1243 889 1269 886C1280 885 1296 883 1318 882C1341 880 1434 880 1455 882C1497 885 1519 888 1556 894C1569 896 1603 903 1612 906C1617 907 1623 909 1625 909C1634 911 1646 915 1665 921C1792 963 1877 1035 1915 1132C1942 1199 1944 1276 1922 1347C1891 1447 1813 1528 1709 1568C1684 1577 1685 1577 1665 1583C1661 1584 1656 1586 1654 1587C1648 1588 1627 1593 1614 1596C1599 1599 1598 1599 1575 1603C1565 1605 1550 1607 1538 1608C1532 1609 1525 1609 1524 1610C1496 1614 1394 1614 1374 1610C1372 1609 1368 1609 1363 1608L1354 1607L1354 1601L1354 1595L1364 1593C1384 1589 1428 1575 1431 1572C1432 1571 1433 1571 1434 1571C1434 1571 1438 1570 1442 1568C1445 1566 1448 1565 1449 1565C1450 1565 1482 1548 1491 1543C1552 1506 1595 1462 1623 1405C1633 1385 1641 1362 1645 1344C1650 1323 1653 1298 1653 1283C1653 1274 1650 1244 1648 1235C1643 1216 1637 1195 1634 1189C1633 1188 1633 1187 1633 1186C1633 1184 1621 1158 1614 1146C1583 1093 1534 1049 1467 1015C1376 970 1256 950 1148 963C1144 964 1137 964 1132 965C1108 968 1069 976 1067 978C1065 980 1055 1009 1046 1044C1030 1105 1019 1173 1013 1240C1011 1266 1011 1335 1013 1357C1018 1415 1020 1433 1029 1484C1029 1487 1030 1487 1033 1488C1053 1493 1121 1513 1144 1520C1186 1533 1239 1551 1262 1562C1265 1563 1271 1566 1278 1569C1289 1574 1325 1591 1336 1598C1353 1607 1368 1616 1380 1624C1438 1661 1491 1709 1537 1766C1544 1776 1546 1779 1560 1797C1573 1815 1594 1846 1608 1870C1616 1882 1621 1890 1623 1894C1624 1895 1627 1900 1630 1905C1636 1915 1649 1937 1649 1938C1649 1938 1650 1939 1651 1941C1653 1943 1666 1966 1674 1980C1676 1984 1693 2014 1697 2020C1716 2053 1725 2068 1743 2096C1798 2178 1856 2235 1926 2275C1975 2303 2029 2322 2085 2331C2174 2346 2256 2344 2337 2323C2342 2322 2349 2321 2353 2321L2360 2321L2360 2326C2360 2332 2360 2332 2354 2334C2339 2339 2312 2347 2286 2352C2209 2368 2100 2373 1992 2365C1979 2365 1965 2364 1960 2363C1954 2362 1946 2362 1941 2361C1810 2347 1699 2304 1609 2233C1602 2227 1593 2220 1590 2217C1581 2209 1545 2176 1544 2174C1544 2174 1538 2168 1532 2162C1507 2136 1469 2089 1433 2038C1411 2007 1394 1983 1346 1911C1300 1842 1288 1824 1267 1796C1257 1784 1239 1761 1234 1755C1195 1709 1171 1688 1130 1659C1114 1648 1110 1645 1100 1641C1096 1639 1091 1637 1088 1636C1086 1635 1080 1632 1074 1630C1068 1628 1062 1625 1060 1624C1058 1623 1056 1622 1054 1622C1053 1622 1051 1621 1050 1620C1048 1620 1047 1619 1047 1619C1046 1619 1047 1622 1047 1625C1048 1629 1049 1643 1051 1657C1065 1770 1088 1869 1122 1958C1124 1964 1127 1971 1128 1974C1129 1977 1132 1985 1134 1991C1156 2046 1165 2077 1170 2118C1171 2123 1171 2137 1171 2150C1171 2172 1170 2181 1167 2200C1165 2211 1159 2233 1156 2240C1156 2242 1155 2244 1154 2246C1145 2266 1141 2274 1131 2289C1091 2349 1027 2391 960 2400C949 2401 913 2402 902 2401ZM2022 2343C1958 2328 1925 2317 1877 2293C1829 2269 1775 2233 1738 2199C1736 2198 1730 2192 1724 2187C1708 2173 1673 2137 1654 2117C1636 2097 1604 2060 1583 2034C1547 1991 1531 1972 1516 1953C1470 1900 1410 1839 1370 1804C1350 1787 1342 1781 1326 1769C1317 1762 1308 1755 1306 1754C1294 1745 1226 1701 1223 1701C1223 1701 1221 1700 1220 1699C1215 1695 1216 1697 1222 1704C1248 1732 1274 1763 1303 1803C1318 1823 1323 1831 1372 1905C1470 2051 1510 2103 1566 2160C1600 2194 1627 2217 1664 2241C1733 2287 1807 2316 1894 2331C1933 2338 1999 2346 2026 2346C2032 2346 2032 2346 2022 2343ZM950 2319C995 2311 1039 2281 1066 2240C1090 2204 1102 2159 1097 2118C1092 2085 1084 2056 1067 2011C1062 2000 1057 1987 1056 1982C1054 1978 1051 1969 1049 1963C1040 1941 1025 1895 1020 1880C1018 1871 1018 1873 1020 1887C1025 1916 1034 1953 1046 1996C1065 2061 1068 2075 1070 2106C1072 2140 1067 2173 1057 2196C1038 2236 1005 2264 964 2276C928 2285 883 2282 855 2266C826 2250 804 2225 792 2196C777 2157 777 2115 794 2066C797 2057 800 2048 801 2045C802 2043 804 2039 805 2038C806 2033 813 2019 817 2010C818 2007 819 2005 819 2004C819 2004 820 2002 821 1999C822 1997 824 1994 824 1992C824 1991 826 1988 827 1986C830 1978 841 1946 844 1932C845 1930 846 1927 846 1926C847 1923 849 1913 852 1899C854 1888 852 1892 847 1907C845 1915 842 1922 842 1922C841 1923 841 1924 841 1925C841 1925 840 1929 838 1932C836 1936 835 1939 835 1940C835 1940 834 1943 832 1946C831 1950 828 1955 827 1957C825 1962 809 1994 804 2004C794 2022 791 2027 788 2034C781 2047 777 2057 773 2066C772 2070 770 2074 770 2076C769 2078 766 2087 765 2090C762 2101 761 2105 760 2110C760 2113 759 2118 758 2121C756 2128 756 2165 758 2172C758 2175 760 2180 760 2183C761 2189 766 2206 768 2210C769 2211 769 2213 770 2214C798 2287 876 2333 950 2319ZM949 2256C1004 2242 1042 2195 1048 2134C1051 2108 1047 2086 1029 2020C1011 1956 1009 1950 1002 1914C995 1882 992 1859 983 1769C980 1743 977 1716 974 1702C973 1696 972 1689 971 1686C971 1684 969 1677 968 1672C967 1668 964 1655 962 1645C961 1635 958 1623 957 1620C957 1616 955 1606 953 1598C950 1582 949 1581 948 1581C947 1581 942 1579 936 1577C930 1575 922 1572 918 1570C904 1565 864 1549 851 1544C844 1541 838 1539 838 1539C837 1539 837 1541 838 1543C839 1546 842 1558 844 1568C845 1571 846 1576 847 1581C855 1617 856 1624 858 1632C859 1635 860 1639 860 1642C862 1652 867 1678 869 1692C870 1696 870 1701 871 1705C874 1727 877 1755 879 1782C880 1802 880 1858 878 1872C876 1891 875 1899 874 1903C874 1905 873 1910 872 1914C871 1920 870 1923 868 1934C865 1948 864 1949 857 1973C852 1986 844 2007 840 2017C839 2019 837 2024 835 2027C834 2030 833 2032 833 2033C833 2033 831 2037 829 2042C827 2046 825 2050 825 2050C825 2051 824 2053 823 2055C822 2058 820 2062 819 2066C818 2069 816 2072 816 2074C815 2075 812 2086 810 2092C809 2095 805 2112 804 2120C800 2146 808 2182 825 2206C854 2248 903 2267 949 2256ZM1813 2221C1800 2208 1790 2197 1777 2182C1759 2162 1727 2118 1709 2088C1686 2051 1683 2046 1677 2035C1676 2033 1674 2031 1674 2030C1674 2030 1672 2028 1671 2026C1670 2024 1668 2020 1667 2018C1666 2016 1663 2012 1662 2009C1660 2006 1658 2002 1657 2001C1656 1999 1655 1998 1655 1998C1655 1997 1654 1996 1653 1994C1652 1993 1650 1989 1648 1986C1641 1973 1632 1957 1627 1950C1626 1948 1625 1946 1625 1946C1625 1945 1623 1941 1620 1937C1617 1933 1615 1929 1615 1929C1615 1928 1601 1905 1593 1893C1590 1887 1584 1879 1581 1873C1526 1786 1467 1718 1401 1669C1379 1652 1350 1633 1324 1619C1315 1614 1277 1595 1270 1592C1266 1590 1261 1588 1258 1587C1252 1584 1233 1576 1224 1572C1172 1553 1144 1544 1010 1506C905 1476 851 1458 785 1428C770 1422 748 1411 738 1405C699 1383 676 1365 659 1343C638 1317 632 1300 632 1266C632 1249 632 1247 634 1237C640 1217 647 1202 658 1186L662 1180L655 1186C623 1218 603 1252 598 1284C593 1318 607 1356 639 1392C679 1438 744 1475 872 1526C900 1537 962 1561 968 1563C969 1563 975 1566 982 1568C988 1570 996 1573 1000 1575C1004 1577 1015 1581 1024 1584C1032 1587 1043 1591 1047 1593C1057 1597 1094 1612 1100 1614C1102 1615 1107 1617 1112 1619C1116 1621 1121 1623 1124 1624C1126 1625 1130 1627 1133 1628C1136 1629 1141 1632 1145 1633C1149 1635 1155 1638 1158 1639C1167 1643 1216 1668 1221 1671C1223 1672 1227 1674 1228 1675C1230 1676 1234 1678 1236 1679C1237 1680 1241 1682 1242 1683C1244 1684 1248 1686 1250 1687C1252 1688 1255 1691 1258 1692C1260 1694 1262 1695 1262 1695C1263 1695 1292 1714 1308 1724C1342 1749 1363 1764 1396 1794C1437 1829 1480 1874 1532 1933C1540 1942 1563 1970 1580 1990C1588 1999 1594 2007 1594 2007C1594 2007 1602 2017 1612 2028C1686 2117 1743 2175 1795 2213C1807 2222 1826 2235 1827 2235C1827 2235 1821 2229 1813 2221ZM1456 1592C1468 1591 1491 1587 1505 1583C1524 1578 1547 1571 1556 1567C1559 1565 1566 1563 1570 1560C1626 1537 1683 1495 1721 1448C1743 1420 1758 1394 1771 1362C1782 1334 1789 1302 1789 1275C1789 1251 1782 1217 1771 1190C1759 1160 1737 1127 1713 1101C1648 1034 1551 988 1430 965C1411 962 1390 959 1389 959C1389 960 1390 960 1392 961C1409 964 1458 983 1484 996C1536 1022 1585 1061 1613 1100C1627 1119 1643 1145 1649 1161C1650 1163 1652 1167 1653 1170C1654 1172 1655 1175 1655 1175C1655 1176 1655 1177 1656 1178C1656 1178 1658 1182 1659 1186C1660 1190 1662 1195 1662 1196C1667 1210 1671 1233 1674 1256C1678 1306 1669 1362 1650 1406C1649 1408 1647 1413 1645 1416C1643 1422 1640 1427 1637 1432C1636 1434 1634 1438 1633 1440C1623 1457 1602 1485 1586 1501C1555 1533 1506 1566 1464 1584C1463 1584 1460 1586 1458 1587C1455 1588 1452 1589 1452 1589C1451 1589 1449 1590 1446 1591C1444 1592 1443 1593 1444 1593C1446 1592 1451 1592 1456 1592ZM1624 1570C1645 1564 1679 1554 1695 1547C1781 1512 1845 1455 1882 1380C1919 1303 1924 1228 1897 1153C1861 1057 1783 989 1658 945C1651 942 1643 940 1624 934C1614 931 1593 925 1584 924C1580 923 1572 921 1567 920C1507 907 1421 900 1362 902C1317 904 1299 905 1257 910C1242 912 1212 917 1196 920C1192 920 1186 921 1183 922C1180 923 1176 923 1174 924C1171 924 1166 926 1163 926C1159 927 1153 929 1149 930C1146 930 1141 931 1138 932C1111 938 1078 947 1076 950C1074 952 1075 952 1084 950C1094 948 1095 948 1120 944C1142 940 1149 939 1162 938C1167 937 1175 937 1179 936C1183 936 1193 935 1200 934C1207 933 1219 933 1226 932C1243 931 1317 931 1336 932C1363 934 1378 935 1392 937C1404 938 1407 938 1422 941C1426 941 1432 942 1436 943C1445 944 1449 945 1462 948C1468 949 1474 950 1475 951C1517 959 1576 980 1617 1001C1709 1048 1773 1116 1798 1194C1806 1219 1810 1237 1811 1267C1814 1368 1762 1463 1664 1536C1650 1547 1624 1563 1608 1570C1595 1577 1596 1577 1624 1570ZM1003 1472C994 1413 988 1337 989 1286C994 1138 1023 1005 1084 859C1100 822 1132 753 1146 728C1149 723 1151 719 1151 718C1150 718 1145 726 1138 736C1100 794 1074 839 1049 892C1038 914 1036 919 1023 950C995 1013 971 1093 958 1164C949 1216 944 1258 942 1310C940 1344 942 1375 947 1424C948 1437 952 1461 953 1463C953 1464 999 1479 1004 1480C1004 1480 1004 1476 1003 1472ZM929 1456C928 1455 924 1420 922 1396C920 1377 920 1293 922 1273C926 1225 930 1186 936 1156C942 1126 944 1115 951 1087C978 980 1022 876 1088 767C1101 746 1118 720 1151 671C1185 620 1206 588 1214 576C1217 571 1222 563 1224 559C1227 555 1230 550 1231 548C1232 547 1236 540 1240 534C1244 528 1248 520 1250 516C1252 513 1255 508 1257 504C1260 498 1276 466 1278 461C1279 460 1280 458 1280 457C1281 456 1281 455 1281 454C1281 453 1282 451 1283 449C1284 446 1285 444 1285 444C1285 443 1286 441 1287 438C1288 436 1290 432 1290 431C1291 430 1291 428 1292 427C1292 426 1296 416 1299 406C1310 373 1311 370 1316 343C1320 328 1319 326 1316 336C1314 340 1311 346 1310 350C1309 353 1307 357 1306 359C1304 364 1284 404 1281 409C1279 411 1276 417 1273 422C1256 450 1234 483 1214 509C1209 516 1202 525 1198 530C1195 535 1189 542 1185 547C1181 552 1174 561 1168 568C1163 574 1153 586 1147 594C1140 602 1129 616 1121 626C1052 711 1023 749 988 802C974 822 958 847 945 870C939 880 936 885 925 906C921 913 905 945 899 956C890 976 887 984 884 991C883 994 881 999 880 1001C878 1004 876 1009 875 1012C874 1016 872 1019 872 1020C872 1022 870 1026 868 1031C866 1036 864 1040 864 1042C861 1048 858 1057 853 1074C850 1084 846 1093 846 1094C846 1096 845 1098 845 1099C844 1100 843 1103 843 1104C840 1116 836 1131 833 1142C833 1144 832 1148 831 1151C830 1154 829 1159 828 1162C827 1166 826 1171 826 1173C824 1183 823 1186 822 1192C821 1196 820 1200 820 1202C820 1205 819 1210 818 1214C817 1218 817 1224 816 1228C808 1280 806 1339 811 1386C811 1390 812 1399 813 1404C813 1410 814 1413 815 1414C818 1417 853 1431 884 1442C929 1457 930 1458 929 1456Z"/></symbol></svg>